<svg xmlns="http://www.w3.org/2000/svg" xmlns:xlink="http://www.w3.org/1999/xlink" width="500" zoomAndPan="magnify" viewBox="0 0 375 374.999991" height="500" preserveAspectRatio="xMidYMid meet" version="1.0"><defs><g/><clipPath id="id1"><path d="M 160.628906 158.023438 L 363.128906 158.023438 L 363.128906 302.023438 L 160.628906 302.023438 Z M 160.628906 158.023438 " clip-rule="nonzero"/></clipPath><clipPath id="id2"><path d="M 40.082031 80.941406 L 177.332031 80.941406 L 177.332031 235.441406 L 40.082031 235.441406 Z M 40.082031 80.941406 " clip-rule="nonzero"/></clipPath><clipPath id="id3"><path d="M 5.054688 59.707031 L 369 59.707031 L 369 319.207031 L 5.054688 319.207031 Z M 5.054688 59.707031 " clip-rule="nonzero"/></clipPath><clipPath id="id4"><path d="M 5.054688 59.707031 L 369.554688 59.707031 L 369.554688 319.207031 L 5.054688 319.207031 Z M 5.054688 59.707031 " clip-rule="nonzero"/></clipPath></defs><rect x="-37.5" width="450" fill="#ffffff" y="-37.499999" height="449.999989" fill-opacity="1"/><rect x="-37.5" width="450" fill="#ffffff" y="-37.499999" height="449.999989" fill-opacity="1"/><rect x="-37.5" width="450" fill="#ffffff" y="-37.499999" height="449.999989" fill-opacity="1"/><rect x="-37.5" width="450" fill="#ffffff" y="-37.499999" height="449.999989" fill-opacity="1"/><g clip-path="url(#id1)"><path fill="#000000" d="M 322.863281 247.078125 L 363.15625 210.777344 L 324.359375 210.777344 C 325.113281 209.945312 325.707031 208.988281 326.050781 207.871094 C 327.054688 204.601562 325.945312 200.691406 323.222656 197.914062 C 321.839844 196.507812 320.167969 195.527344 318.316406 194.9375 C 317.640625 178.070312 291.410156 158.066406 258.917969 158.066406 C 226 158.066406 199.488281 178.601562 199.488281 195.605469 C 199.488281 195.96875 199.558594 196.3125 199.585938 196.667969 C 198.484375 197.664062 197.480469 198.855469 196.644531 200.277344 C 194.636719 203.703125 193.878906 207.414062 194.46875 210.777344 L 160.628906 210.777344 L 198.46875 244.867188 C 198.023438 246.847656 197.800781 249.03125 197.800781 251.4375 C 197.800781 259.753906 209.476562 266.894531 227.320312 270.859375 L 261.140625 301.328125 L 261.894531 302.011719 L 297.621094 269.824219 C 313.035156 265.714844 322.875 259.074219 322.875 251.4375 C 322.875 249.578125 322.679688 247.886719 322.378906 246.28125 C 322.578125 246.523438 322.765625 246.773438 322.863281 247.078125 Z M 258.917969 160.320312 C 286.136719 160.320312 309.894531 175.476562 315.046875 189.964844 L 315.035156 189.964844 C 314.933594 196.386719 309.847656 201.609375 299.917969 205.488281 L 300.386719 206.683594 C 309.25 203.222656 314.414062 198.648438 315.863281 193.082031 C 316.003906 193.929688 316.09375 194.773438 316.09375 195.605469 C 316.09375 213.734375 280.269531 216.445312 258.914062 216.445312 C 237.5625 216.445312 201.738281 213.738281 201.738281 195.605469 C 201.742188 179.722656 228.125 160.320312 258.917969 160.320312 Z M 198.605469 201.425781 C 198.933594 200.871094 199.449219 200.160156 200.058594 199.445312 C 203.488281 211.890625 224.042969 218.699219 258.917969 218.699219 C 295.742188 218.699219 316.609375 211.113281 318.191406 197.308594 C 319.472656 197.796875 320.632812 198.519531 321.601562 199.507812 C 323.75 201.699219 324.644531 204.71875 323.882812 207.207031 C 323.222656 209.359375 321.449219 210.78125 318.75 211.324219 L 316.96875 211.683594 L 318.074219 213.125 C 319.242188 214.65625 319.761719 216.609375 319.496094 218.5 C 319.246094 220.253906 318.34375 221.789062 316.960938 222.8125 C 313.910156 225.074219 308.042969 223.613281 305.828125 221.46875 L 303.429688 219.152344 L 303.914062 222.449219 C 304.488281 226.359375 303.847656 228.882812 301.832031 230.628906 C 299.492188 232.660156 295.882812 233.621094 292.183594 233.226562 C 288.792969 232.855469 285.359375 231.351562 282.519531 229 C 282.207031 228.742188 281.90625 228.46875 281.613281 228.183594 L 280.3125 226.929688 L 279.746094 228.644531 C 278.785156 231.574219 276.054688 233.847656 272.949219 234.304688 C 268.8125 234.941406 264.457031 231.046875 263.796875 228.199219 L 263.085938 225.167969 L 261.679688 227.945312 C 259.761719 231.71875 257.574219 233.691406 254.597656 234.335938 C 251.21875 235.070312 247.351562 234.300781 244.269531 232.265625 C 243.152344 231.527344 242.117188 230.566406 241.097656 229.328125 L 240.585938 228.714844 L 239.835938 228.984375 C 236.679688 230.121094 232.453125 230.066406 230.027344 226.527344 L 229.242188 225.375 L 228.273438 226.378906 C 225.347656 229.429688 219.835938 230.371094 216.246094 228.433594 C 214.519531 227.496094 213.820312 225.867188 213.539062 224.664062 C 213.066406 222.664062 213.421875 220.367188 214.421875 218.953125 L 216.578125 215.886719 L 213.085938 217.238281 C 208.660156 218.945312 205.339844 219.167969 202.628906 217.945312 C 199.605469 216.578125 197.40625 213.867188 196.75 210.6875 C 196.148438 207.785156 196.808594 204.496094 198.605469 201.425781 Z M 264.644531 256.152344 C 263.210938 256.132812 261.777344 256.113281 260.335938 256.113281 C 228.03125 256.113281 200.699219 246.175781 200.082031 234.324219 C 202.609375 236.0625 205.539062 236.972656 208.546875 236.972656 C 209.4375 236.972656 210.332031 236.894531 211.226562 236.734375 C 211.683594 236.652344 212.125 236.515625 212.566406 236.386719 C 213.292969 237.082031 214.050781 237.746094 214.855469 238.359375 C 219.410156 241.84375 224.734375 243.667969 230.183594 243.667969 C 231.226562 243.667969 232.277344 243.582031 233.324219 243.445312 C 238.261719 249.179688 245.796875 252.699219 253.980469 252.699219 C 255.644531 252.699219 257.332031 252.554688 259.03125 252.253906 C 265.011719 251.195312 270.347656 248.347656 274.390625 244.152344 C 277.210938 245.03125 280.09375 245.492188 282.933594 245.492188 C 288.132812 245.492188 293.160156 244.015625 297.433594 241.300781 C 299.648438 242.585938 302.183594 243.335938 304.851562 243.335938 C 305.730469 243.335938 306.613281 243.257812 307.503906 243.097656 C 314.070312 241.925781 318.871094 236.625 319.738281 230.347656 C 320.292969 231.511719 320.621094 232.703125 320.621094 233.917969 C 320.621094 239.113281 315.457031 243.949219 306.980469 247.78125 C 306.964844 247.820312 306.9375 247.863281 306.921875 247.90625 C 306.363281 248.171875 305.671875 248.5 304.714844 248.945312 C 303.640625 249.449219 303.445312 250.734375 303.222656 252.226562 C 302.945312 254.0625 302.652344 255.492188 301.648438 255.796875 C 299.75 256.378906 298.78125 255.625 297.847656 254.898438 C 297.109375 254.320312 295.726562 253.246094 294.328125 254.640625 C 293.765625 255.203125 293.746094 255.964844 293.730469 256.582031 C 293.703125 257.480469 293.648438 257.792969 293.054688 258.046875 C 292.273438 258.375 292.25 258.335938 291.796875 257.6875 C 291.359375 257.066406 290.550781 255.898438 288.792969 256.253906 C 287.511719 256.507812 287.148438 257.773438 286.886719 258.703125 C 286.804688 259.003906 286.660156 259.507812 286.554688 259.625 C 285.742188 260.378906 285.429688 260.429688 285.339844 260.398438 C 285.304688 260.394531 285.199219 260.324219 285.058594 260.109375 C 284.949219 259.902344 284.929688 259.148438 284.917969 258.691406 C 284.882812 257.375 284.839844 255.738281 283.421875 255.21875 C 282.921875 255.039062 282.464844 255.105469 281.941406 255.175781 C 277.417969 255.652344 273.859375 255.78125 268.933594 255.960938 L 264.636719 256.117188 Z M 202.726562 222.679688 C 201.257812 223.644531 200.550781 225.140625 200.519531 225.203125 L 199.859375 226.621094 L 201.421875 226.578125 C 201.492188 226.574219 203.144531 226.523438 204.613281 225.558594 C 204.878906 225.386719 205.105469 225.195312 205.320312 225 C 206.617188 228.769531 208.636719 232.183594 211.269531 235.054688 C 211.160156 235.082031 211.054688 235.125 210.941406 235.144531 C 207.40625 235.773438 203.847656 234.996094 200.90625 232.945312 C 197.964844 230.894531 196 227.824219 195.371094 224.292969 C 194.847656 221.390625 195.351562 218.492188 196.660156 215.914062 C 197.9375 217.664062 199.648438 219.097656 201.6875 220.019531 C 202.523438 220.394531 203.363281 220.644531 204.210938 220.800781 C 204.28125 221.175781 204.367188 221.542969 204.449219 221.914062 C 203.917969 222.0625 203.308594 222.296875 202.726562 222.679688 Z M 204.65625 222.859375 C 204.753906 223.230469 204.882812 223.59375 204.996094 223.964844 C 204.742188 224.238281 204.449219 224.511719 204.085938 224.753906 C 202.832031 225.578125 201.398438 225.613281 201.398438 225.613281 C 201.398438 225.613281 202.003906 224.316406 203.261719 223.492188 C 203.730469 223.183594 204.222656 222.984375 204.65625 222.859375 Z M 211.324219 225.1875 C 211.875 227.527344 213.238281 229.390625 215.167969 230.433594 C 218.8125 232.410156 223.859375 232.035156 227.578125 229.792969 C 227.628906 230.539062 227.703125 231.28125 227.835938 232.035156 C 228.460938 235.472656 229.820312 238.601562 231.710938 241.34375 C 226.21875 241.722656 220.792969 240.058594 216.207031 236.550781 C 211.6875 233.09375 208.457031 228.203125 206.917969 222.585938 C 206.796875 222.28125 206.722656 221.96875 206.695312 221.644531 L 206.6875 221.644531 C 206.636719 221.429688 206.59375 221.210938 206.546875 220.992188 C 208.253906 220.980469 209.910156 220.652344 211.398438 220.21875 C 210.980469 221.785156 210.941406 223.546875 211.324219 225.1875 Z M 240.578125 236.015625 C 243.054688 239.757812 247.140625 241.636719 250.742188 243.292969 C 251.46875 243.625 252.128906 243.792969 252.707031 243.792969 C 253.472656 243.792969 254.082031 243.5 254.496094 242.917969 C 254.898438 242.351562 254.96875 241.671875 255.003906 241.023438 C 255.097656 239.535156 255.09375 238.046875 255.058594 236.5625 C 255.066406 236.558594 255.070312 236.558594 255.078125 236.558594 C 255.992188 236.359375 256.820312 236.0625 257.570312 235.6875 C 258.054688 237.929688 258.601562 240.160156 259.304688 242.339844 C 259.375 242.558594 259.484375 242.890625 259.765625 243.136719 C 259.996094 243.332031 260.277344 243.429688 260.609375 243.429688 C 260.898438 243.429688 261.230469 243.355469 261.59375 243.207031 C 263.261719 242.523438 264.832031 241.445312 266.546875 239.808594 C 267.808594 238.601562 268.777344 237.429688 269.503906 236.253906 C 270.285156 236.480469 271.09375 236.613281 271.921875 236.621094 C 271.640625 237.136719 271.335938 237.636719 270.996094 238.125 C 267.980469 242.410156 263.398438 245.261719 258.09375 246.15625 C 247.746094 247.921875 237.8125 241.5625 235.277344 231.871094 C 236.355469 231.960938 237.480469 231.882812 238.625 231.65625 C 239.15625 233.371094 239.792969 234.832031 240.578125 236.015625 Z M 239.5625 231.433594 C 239.660156 231.40625 239.753906 231.394531 239.851562 231.367188 C 240.855469 232.5 241.898438 233.417969 243.019531 234.160156 C 245.703125 235.933594 248.90625 236.878906 252.015625 236.878906 C 252.710938 236.882812 253.40625 236.816406 254.089844 236.71875 C 254.117188 238.132812 254.117188 239.546875 254.035156 240.964844 C 254 241.496094 253.953125 242 253.699219 242.359375 C 253.15625 243.121094 252.011719 242.804688 251.152344 242.414062 C 247.667969 240.808594 243.71875 238.996094 241.394531 235.484375 C 240.664062 234.386719 240.0625 233.039062 239.5625 231.433594 Z M 258.460938 235.183594 C 260.277344 234.054688 261.589844 232.503906 262.566406 230.984375 C 263.808594 232.984375 265.988281 234.949219 268.554688 235.953125 C 267.886719 236.992188 267 238.03125 265.871094 239.109375 C 264.246094 240.664062 262.773438 241.679688 261.226562 242.3125 C 260.835938 242.472656 260.53125 242.507812 260.414062 242.40625 C 260.335938 242.339844 260.28125 242.167969 260.238281 242.046875 C 259.507812 239.796875 258.945312 237.496094 258.460938 235.183594 Z M 254.652344 248.054688 C 255.878906 248.054688 257.121094 247.953125 258.371094 247.742188 C 264.105469 246.769531 269.066406 243.679688 272.335938 239.042969 C 272.921875 238.210938 273.398438 237.332031 273.832031 236.441406 C 275.246094 236.15625 276.574219 235.59375 277.746094 234.800781 C 277.003906 236.71875 276.003906 238.566406 274.714844 240.285156 C 270.875 245.40625 265.164062 248.863281 258.628906 250.019531 C 245.183594 252.402344 232.367188 244.152344 230.101562 231.632812 C 229.984375 230.980469 229.914062 230.332031 229.867188 229.683594 C 230.921875 230.570312 232.164062 231.199219 233.527344 231.554688 C 235.691406 241.257812 244.640625 248.054688 254.652344 248.054688 Z M 281.175781 231.019531 C 281.199219 230.976562 281.226562 230.941406 281.25 230.898438 C 284.34375 233.402344 288.050781 235.003906 291.742188 235.445312 C 292.679688 237.164062 293.910156 238.675781 295.386719 239.894531 C 289.734375 243.148438 282.765625 244.054688 276.054688 242.242188 C 276.21875 242.039062 276.398438 241.847656 276.554688 241.636719 C 278.980469 238.40625 280.511719 234.78125 281.175781 231.019531 Z M 307.226562 241.507812 C 303.695312 242.132812 300.132812 241.355469 297.191406 239.304688 C 295.746094 238.300781 294.589844 237.015625 293.667969 235.574219 C 297.367188 235.609375 300.886719 234.453125 303.320312 232.34375 C 303.597656 232.101562 303.84375 231.847656 304.078125 231.589844 C 303.984375 232.175781 303.9375 232.90625 304.074219 233.679688 C 304.382812 235.410156 305.484375 236.648438 305.527344 236.703125 L 306.570312 237.863281 L 307.144531 236.410156 C 307.171875 236.347656 307.769531 234.804688 307.460938 233.074219 C 307.152344 231.339844 306.054688 230.101562 306.007812 230.050781 L 305.488281 229.46875 C 305.695312 229.023438 305.847656 228.570312 305.980469 228.113281 L 306.671875 228.800781 C 306.722656 228.851562 307.902344 230.007812 309.617188 230.402344 C 310.042969 230.5 310.496094 230.550781 310.964844 230.550781 C 312.058594 230.550781 312.875 230.28125 312.964844 230.253906 L 314.445312 229.75 L 313.335938 228.652344 C 313.285156 228.601562 312.101562 227.445312 310.390625 227.046875 C 309.964844 226.949219 309.507812 226.902344 309.042969 226.902344 C 307.949219 226.902344 307.128906 227.167969 307.042969 227.199219 L 306.140625 227.503906 C 306.347656 226.519531 306.414062 225.53125 306.390625 224.589844 C 309.625 226.277344 314.503906 226.964844 317.800781 224.9375 C 317.898438 225.261719 318.011719 225.582031 318.074219 225.929688 C 319.375 233.214844 314.511719 240.203125 307.226562 241.507812 Z M 305.289062 230.695312 C 305.289062 230.695312 306.246094 231.765625 306.511719 233.246094 C 306.777344 234.726562 306.246094 236.058594 306.246094 236.058594 C 306.246094 236.058594 305.289062 234.988281 305.023438 233.507812 C 304.761719 232.027344 305.289062 230.695312 305.289062 230.695312 Z M 307.347656 228.117188 C 307.347656 228.117188 308.074219 227.867188 309.039062 227.867188 C 309.390625 227.867188 309.773438 227.902344 310.167969 227.992188 C 311.632812 228.332031 312.648438 229.339844 312.648438 229.339844 C 312.648438 229.339844 311.921875 229.589844 310.960938 229.589844 C 310.605469 229.589844 310.222656 229.554688 309.828125 229.464844 C 308.363281 229.125 307.347656 228.117188 307.347656 228.117188 Z M 195.09375 213.027344 C 195.257812 213.460938 195.441406 213.878906 195.652344 214.289062 C 193.816406 217.386719 193.144531 220.996094 193.785156 224.578125 C 193.992188 225.734375 194.34375 226.839844 194.796875 227.894531 C 189.132812 223.167969 183.589844 218.242188 178.277344 213.027344 Z M 199.175781 242.46875 L 166.5 213.027344 L 175.867188 213.027344 C 182.875 220.019531 190.324219 226.476562 197.902344 232.636719 C 197.84375 233.058594 197.800781 233.484375 197.800781 233.914062 C 197.800781 235.449219 198.164062 236.945312 198.824219 238.398438 C 198.910156 239.503906 199.136719 240.574219 199.492188 241.609375 C 199.378906 241.890625 199.273438 242.179688 199.175781 242.46875 Z M 261.890625 298.972656 L 231.65625 271.734375 C 236.695312 272.664062 242.136719 273.351562 247.894531 273.757812 C 252.003906 277.574219 256.015625 281.515625 259.820312 285.667969 L 260.320312 286.214844 L 260.90625 285.761719 C 265.992188 281.804688 270.871094 277.714844 275.707031 273.554688 C 275.691406 273.546875 275.679688 273.535156 275.664062 273.527344 C 281.886719 272.976562 287.714844 272.097656 293.011719 270.9375 Z M 250.402344 273.917969 C 253.632812 274.09375 256.945312 274.191406 260.335938 274.191406 C 264.6875 274.191406 268.917969 274.035156 272.996094 273.742188 C 268.90625 277.238281 264.777344 280.691406 260.503906 284.035156 C 257.257812 280.523438 253.867188 277.179688 250.402344 273.917969 Z M 260.335938 271.9375 C 227.65625 271.9375 200.050781 262.550781 200.050781 251.4375 C 200.050781 248.851562 200.347656 246.578125 200.890625 244.535156 C 203.359375 248.382812 207.945312 251.644531 214.65625 254.265625 L 215.128906 253.070312 C 208.097656 250.320312 203.546875 246.886719 201.425781 242.84375 C 201.476562 242.710938 201.527344 242.578125 201.578125 242.449219 C 210.253906 251.832031 232.984375 258.367188 260.335938 258.367188 C 261.820312 258.367188 263.273438 258.328125 264.726562 258.292969 L 264.730469 258.367188 L 269.015625 258.207031 C 273.984375 258.027344 277.574219 257.894531 282.171875 257.410156 L 282.449219 257.378906 C 282.480469 257.371094 282.519531 257.367188 282.558594 257.363281 C 282.640625 257.683594 282.65625 258.332031 282.667969 258.746094 C 282.695312 259.664062 282.714844 260.613281 283.15625 261.300781 C 283.769531 262.269531 284.523438 262.554688 285.046875 262.625 C 285.15625 262.640625 285.261719 262.648438 285.367188 262.648438 C 286.453125 262.648438 287.382812 261.925781 288.085938 261.277344 C 288.644531 260.757812 288.867188 259.988281 289.058594 259.308594 C 289.144531 259.003906 289.289062 258.496094 289.230469 258.453125 C 289.53125 258.398438 289.550781 258.394531 289.949219 258.96875 C 290.476562 259.734375 291.472656 261.160156 293.929688 260.113281 C 295.914062 259.277344 295.960938 257.558594 295.980469 256.632812 C 295.984375 256.539062 295.988281 256.421875 295.992188 256.316406 C 296.136719 256.417969 296.320312 256.554688 296.464844 256.667969 C 297.515625 257.492188 299.273438 258.867188 302.304688 257.949219 C 304.742188 257.203125 305.152344 254.519531 305.449219 252.558594 C 305.539062 251.96875 305.675781 251.082031 305.671875 250.980469 C 306.621094 250.535156 307.316406 250.207031 307.882812 249.941406 C 312.578125 247.804688 316.332031 245.339844 318.910156 242.632812 C 320.027344 245.097656 320.621094 247.988281 320.621094 251.4375 C 320.621094 262.550781 293.015625 271.9375 260.335938 271.9375 Z M 320.492188 240.726562 C 322.039062 238.570312 322.875 236.285156 322.875 233.910156 C 322.875 231.167969 321.757812 228.546875 319.710938 226.105469 C 319.691406 225.953125 319.679688 225.800781 319.652344 225.648438 C 319.542969 225.023438 319.378906 224.425781 319.195312 223.835938 C 320.558594 222.5 321.464844 220.773438 321.742188 218.8125 C 322.015625 216.871094 321.660156 214.867188 320.753906 213.125 C 320.828125 213.097656 320.882812 213.054688 320.957031 213.027344 L 340.761719 213.027344 L 332.734375 220.21875 L 333.808594 221.414062 L 343.078125 213.113281 L 343 213.027344 L 357.289062 213.027344 L 322.085938 244.742188 C 321.707031 243.28125 321.148438 241.96875 320.492188 240.726562 Z M 320.492188 240.726562 " fill-opacity="1" fill-rule="nonzero"/></g><path fill="#000000" d="M 325.679688 228.484375 L 324.605469 227.285156 L 330.394531 222.09375 L 331.46875 223.292969 Z M 325.679688 228.484375 " fill-opacity="1" fill-rule="nonzero"/><path fill="#000000" d="M 262.566406 239.449219 C 262.65625 239.449219 262.753906 239.4375 262.847656 239.410156 C 263.078125 239.34375 263.285156 239.195312 263.460938 238.980469 C 264.050781 238.253906 264.03125 237.121094 263.40625 236.222656 C 262.898438 235.484375 262.113281 235 261.421875 234.570312 L 261.246094 237.796875 C 261.273438 238.089844 261.308594 238.492188 261.523438 238.84375 C 261.726562 239.171875 262.121094 239.449219 262.566406 239.449219 Z M 262.601562 236.769531 C 262.921875 237.234375 263.058594 237.933594 262.695312 238.375 C 262.640625 238.445312 262.59375 238.480469 262.578125 238.484375 C 262.511719 238.507812 262.417969 238.441406 262.359375 238.34375 C 262.261719 238.1875 262.242188 237.9375 262.222656 237.71875 L 262.09375 236.214844 C 262.285156 236.382812 262.460938 236.566406 262.601562 236.769531 Z M 262.601562 236.769531 " fill-opacity="1" fill-rule="nonzero"/><path fill="#000000" d="M 251.367188 241.355469 C 251.453125 241.359375 251.535156 241.355469 251.613281 241.339844 C 251.992188 241.261719 252.285156 240.960938 252.402344 240.644531 C 252.527344 240.300781 252.488281 239.953125 252.457031 239.695312 L 251.757812 236.949219 C 251.242188 237.429688 250.65625 237.980469 250.347656 238.703125 C 249.972656 239.582031 250.144531 240.558594 250.773438 241.085938 C 250.957031 241.242188 251.160156 241.332031 251.367188 241.355469 Z M 251.128906 239.035156 C 251.214844 238.835938 251.332031 238.648438 251.46875 238.46875 L 251.613281 239.785156 C 251.636719 239.980469 251.660156 240.199219 251.605469 240.351562 C 251.570312 240.441406 251.5 240.515625 251.441406 240.503906 C 251.425781 240.503906 251.382812 240.484375 251.320312 240.433594 C 250.9375 240.113281 250.933594 239.488281 251.128906 239.035156 Z M 251.128906 239.035156 " fill-opacity="1" fill-rule="nonzero"/><path fill="#000000" d="M 222.703125 186.824219 C 223.078125 186.824219 223.460938 186.710938 223.789062 186.484375 L 229.855469 182.304688 C 230.28125 182.015625 230.566406 181.574219 230.660156 181.070312 C 230.753906 180.558594 230.640625 180.050781 230.351562 179.628906 C 229.746094 178.75 228.546875 178.53125 227.675781 179.132812 L 221.605469 183.3125 C 221.183594 183.601562 220.898438 184.039062 220.804688 184.546875 C 220.710938 185.054688 220.820312 185.5625 221.113281 185.988281 C 221.484375 186.53125 222.085938 186.824219 222.703125 186.824219 Z M 222.335938 184.371094 L 228.402344 180.191406 C 228.515625 180.117188 228.640625 180.082031 228.765625 180.082031 C 228.964844 180.082031 229.167969 180.179688 229.289062 180.355469 C 229.386719 180.496094 229.421875 180.667969 229.390625 180.832031 C 229.359375 181 229.261719 181.148438 229.125 181.242188 L 223.058594 185.421875 C 222.917969 185.519531 222.746094 185.550781 222.582031 185.523438 C 222.414062 185.492188 222.265625 185.394531 222.167969 185.261719 L 222.167969 185.257812 C 222.074219 185.117188 222.039062 184.949219 222.070312 184.78125 C 222.101562 184.613281 222.195312 184.46875 222.335938 184.371094 Z M 222.335938 184.371094 " fill-opacity="1" fill-rule="nonzero"/><path fill="#000000" d="M 277.5625 185.855469 C 277.121094 186.113281 276.800781 186.527344 276.667969 187.027344 C 276.53125 187.523438 276.601562 188.042969 276.859375 188.488281 L 280.539062 194.871094 C 280.894531 195.484375 281.542969 195.832031 282.210938 195.832031 C 282.535156 195.832031 282.867188 195.75 283.171875 195.578125 L 283.171875 195.574219 C 283.613281 195.320312 283.933594 194.902344 284.066406 194.40625 C 284.203125 193.90625 284.132812 193.390625 283.875 192.945312 L 280.191406 186.5625 C 279.9375 186.117188 279.519531 185.796875 279.023438 185.664062 C 278.527344 185.53125 278.007812 185.601562 277.5625 185.855469 Z M 282.761719 193.585938 C 282.847656 193.730469 282.867188 193.902344 282.824219 194.070312 C 282.777344 194.230469 282.675781 194.371094 282.527344 194.453125 C 282.226562 194.640625 281.828125 194.53125 281.652344 194.222656 L 277.96875 187.839844 C 277.886719 187.695312 277.863281 187.523438 277.910156 187.355469 C 277.957031 187.191406 278.058594 187.054688 278.207031 186.96875 C 278.304688 186.910156 278.417969 186.882812 278.527344 186.882812 C 278.746094 186.882812 278.957031 186.996094 279.078125 187.203125 Z M 282.761719 193.585938 " fill-opacity="1" fill-rule="nonzero"/><path fill="#000000" d="M 243.398438 189.25 C 243.433594 189.25 243.46875 189.25 243.5 189.25 C 243.980469 189.25 244.433594 189.078125 244.785156 188.757812 L 250.257812 183.820312 C 251.046875 183.113281 251.109375 181.890625 250.398438 181.105469 C 249.691406 180.316406 248.46875 180.253906 247.683594 180.960938 L 242.210938 185.898438 C 241.832031 186.238281 241.605469 186.710938 241.582031 187.226562 C 241.554688 187.746094 241.726562 188.238281 242.070312 188.617188 C 242.410156 188.996094 242.882812 189.222656 243.398438 189.25 Z M 243.070312 186.855469 L 248.542969 181.917969 C 248.664062 181.808594 248.816406 181.753906 248.96875 181.753906 C 249.144531 181.753906 249.316406 181.824219 249.445312 181.964844 C 249.679688 182.226562 249.65625 182.632812 249.398438 182.867188 L 243.925781 187.800781 C 243.800781 187.914062 243.640625 187.992188 243.464844 187.960938 C 243.296875 187.953125 243.136719 187.878906 243.023438 187.753906 C 242.910156 187.625 242.855469 187.464844 242.867188 187.292969 C 242.871094 187.121094 242.949219 186.964844 243.070312 186.855469 Z M 243.070312 186.855469 " fill-opacity="1" fill-rule="nonzero"/><path fill="#000000" d="M 246.804688 170.328125 L 253.1875 174.011719 C 253.480469 174.183594 253.808594 174.273438 254.144531 174.273438 C 254.3125 174.273438 254.480469 174.25 254.648438 174.207031 C 255.144531 174.070312 255.558594 173.753906 255.820312 173.308594 C 256.074219 172.863281 256.144531 172.34375 256.007812 171.847656 C 255.875 171.347656 255.558594 170.933594 255.113281 170.675781 L 248.730469 166.992188 C 248.289062 166.734375 247.769531 166.667969 247.269531 166.800781 C 246.773438 166.9375 246.359375 167.25 246.101562 167.699219 C 245.84375 168.140625 245.773438 168.660156 245.910156 169.160156 C 246.042969 169.65625 246.359375 170.074219 246.804688 170.328125 Z M 247.214844 168.34375 C 247.300781 168.199219 247.4375 168.09375 247.601562 168.046875 C 247.65625 168.03125 247.714844 168.023438 247.769531 168.023438 C 247.878906 168.023438 247.988281 168.054688 248.085938 168.109375 L 254.46875 171.792969 C 254.613281 171.875 254.71875 172.015625 254.761719 172.179688 C 254.808594 172.347656 254.785156 172.515625 254.703125 172.664062 L 254.699219 172.664062 C 254.613281 172.808594 254.476562 172.917969 254.3125 172.960938 C 254.148438 173.007812 253.976562 172.984375 253.828125 172.902344 L 247.449219 169.214844 C 247.144531 169.035156 247.039062 168.644531 247.214844 168.34375 Z M 247.214844 168.34375 " fill-opacity="1" fill-rule="nonzero"/><path fill="#000000" d="M 289.546875 185.722656 C 289.816406 185.855469 290.105469 185.921875 290.394531 185.921875 C 290.605469 185.921875 290.8125 185.886719 291.015625 185.820312 L 297.988281 183.445312 C 298.472656 183.277344 298.867188 182.933594 299.09375 182.46875 C 299.320312 182.007812 299.355469 181.484375 299.1875 181 C 299.023438 180.515625 298.679688 180.121094 298.214844 179.898438 C 297.757812 179.667969 297.226562 179.636719 296.746094 179.800781 L 289.773438 182.171875 C 289.285156 182.339844 288.894531 182.6875 288.667969 183.148438 C 288.441406 183.609375 288.40625 184.136719 288.574219 184.613281 C 288.738281 185.101562 289.082031 185.492188 289.546875 185.722656 Z M 289.824219 183.714844 C 289.902344 183.5625 290.03125 183.445312 290.1875 183.390625 L 297.160156 181.015625 C 297.226562 180.992188 297.296875 180.984375 297.367188 180.984375 C 297.464844 180.984375 297.558594 181.003906 297.648438 181.046875 C 297.800781 181.125 297.917969 181.253906 297.972656 181.410156 L 297.972656 181.414062 C 298.027344 181.574219 298.015625 181.746094 297.941406 181.898438 C 297.863281 182.054688 297.734375 182.167969 297.578125 182.222656 L 290.601562 184.597656 C 290.4375 184.652344 290.269531 184.644531 290.113281 184.566406 C 289.960938 184.488281 289.847656 184.359375 289.792969 184.195312 C 289.738281 184.039062 289.75 183.871094 289.824219 183.714844 Z M 289.824219 183.714844 " fill-opacity="1" fill-rule="nonzero"/><path fill="#000000" d="M 259.457031 200.261719 C 259.726562 200.394531 260.015625 200.460938 260.308594 200.460938 C 260.515625 200.460938 260.726562 200.425781 260.925781 200.359375 L 267.902344 197.984375 C 268.902344 197.640625 269.445312 196.542969 269.101562 195.539062 C 268.757812 194.535156 267.660156 194 266.65625 194.339844 L 259.6875 196.710938 C 259.199219 196.875 258.808594 197.222656 258.578125 197.6875 C 258.351562 198.152344 258.320312 198.671875 258.484375 199.15625 C 258.648438 199.640625 258.996094 200.035156 259.457031 200.261719 Z M 259.734375 198.253906 C 259.8125 198.101562 259.941406 197.988281 260.101562 197.933594 L 267.074219 195.558594 C 267.144531 195.535156 267.214844 195.523438 267.28125 195.523438 C 267.546875 195.523438 267.792969 195.6875 267.886719 195.953125 C 268 196.285156 267.820312 196.652344 267.488281 196.761719 L 260.515625 199.136719 C 260.355469 199.1875 260.183594 199.183594 260.027344 199.101562 C 259.875 199.027344 259.757812 198.898438 259.703125 198.738281 C 259.648438 198.578125 259.660156 198.410156 259.734375 198.253906 Z M 259.734375 198.253906 " fill-opacity="1" fill-rule="nonzero"/><path fill="#000000" d="M 270.746094 178.933594 C 270.953125 178.933594 271.160156 178.898438 271.363281 178.828125 L 278.335938 176.457031 C 279.339844 176.113281 279.882812 175.019531 279.539062 174.011719 C 279.375 173.527344 279.027344 173.132812 278.566406 172.90625 C 278.105469 172.679688 277.578125 172.644531 277.097656 172.808594 L 270.121094 175.183594 C 269.121094 175.527344 268.582031 176.625 268.921875 177.628906 C 269.195312 178.429688 269.945312 178.933594 270.746094 178.933594 Z M 270.539062 176.402344 L 277.511719 174.027344 C 277.578125 174.003906 277.648438 173.992188 277.714844 173.992188 C 277.8125 173.992188 277.910156 174.015625 278 174.058594 C 278.152344 174.132812 278.269531 174.261719 278.324219 174.421875 C 278.375 174.582031 278.367188 174.757812 278.289062 174.910156 C 278.210938 175.066406 278.082031 175.179688 277.925781 175.234375 L 270.949219 177.605469 C 270.789062 177.664062 270.617188 177.65625 270.464844 177.574219 C 270.3125 177.5 270.195312 177.367188 270.140625 177.210938 C 270.027344 176.878906 270.207031 176.515625 270.539062 176.402344 Z M 270.539062 176.402344 " fill-opacity="1" fill-rule="nonzero"/><path fill="#000000" d="M 233.894531 201.078125 L 241.210938 201.9375 C 241.289062 201.949219 241.363281 201.953125 241.441406 201.953125 C 241.871094 201.953125 242.285156 201.8125 242.628906 201.539062 C 243.035156 201.21875 243.289062 200.761719 243.347656 200.257812 C 243.410156 199.746094 243.269531 199.242188 242.949219 198.839844 C 242.628906 198.433594 242.171875 198.179688 241.664062 198.117188 L 234.34375 197.253906 C 233.316406 197.136719 232.332031 197.886719 232.210938 198.9375 C 232.148438 199.449219 232.289062 199.953125 232.609375 200.359375 C 232.929688 200.765625 233.386719 201.015625 233.894531 201.078125 Z M 234.121094 198.527344 C 234.148438 198.527344 234.171875 198.53125 234.195312 198.53125 L 241.511719 199.394531 C 241.679688 199.414062 241.832031 199.503906 241.9375 199.632812 C 242.046875 199.765625 242.089844 199.933594 242.074219 200.097656 L 242.074219 200.101562 C 242.03125 200.453125 241.679688 200.683594 241.363281 200.660156 L 234.046875 199.800781 C 233.878906 199.777344 233.726562 199.695312 233.621094 199.5625 C 233.515625 199.425781 233.46875 199.257812 233.488281 199.089844 C 233.527344 198.765625 233.804688 198.527344 234.121094 198.527344 Z M 234.121094 198.527344 " fill-opacity="1" fill-rule="nonzero"/><path fill="#000000" d="M 218.023438 255.484375 C 221.148438 256.515625 224.5 257.414062 227.984375 258.148438 L 228.25 256.890625 C 224.808594 256.164062 221.503906 255.277344 218.425781 254.261719 Z M 218.023438 255.484375 " fill-opacity="1" fill-rule="nonzero"/><path fill="#000000" d="M 232.316406 258.996094 C 235.078125 259.480469 237.929688 259.90625 241.03125 260.296875 L 241.191406 259.023438 C 238.109375 258.632812 235.277344 258.207031 232.535156 257.726562 Z M 232.316406 258.996094 " fill-opacity="1" fill-rule="nonzero"/><path fill="#000000" d="M 289.136719 208.582031 L 289.347656 209.851562 C 292.050781 209.402344 294.671875 208.78125 297.132812 208.007812 L 296.746094 206.78125 C 294.34375 207.535156 291.78125 208.140625 289.136719 208.582031 Z M 289.136719 208.582031 " fill-opacity="1" fill-rule="nonzero"/><g clip-path="url(#id2)"><path fill="#000000" d="M 174.996094 132.398438 C 173.136719 130.210938 170.425781 128.957031 167.558594 128.957031 L 146.738281 128.957031 L 146.738281 117.75 C 147.109375 117.835938 147.523438 117.90625 148.003906 117.90625 C 149.636719 117.90625 151.753906 117.242188 153.332031 114.855469 C 155.246094 111.957031 153.96875 108.890625 152.667969 107.179688 C 153.5625 105.414062 155.125 101.101562 152.21875 96.386719 C 148.09375 89.695312 140.792969 89.746094 138.25 89.992188 C 137.273438 88.40625 134.652344 85.011719 129.820312 84.382812 C 125.398438 83.804688 122.238281 85.867188 120.703125 87.203125 C 118.832031 85.121094 114.058594 80.941406 105.875 80.941406 C 98.371094 80.941406 93.117188 83.917969 91.191406 85.207031 C 90.054688 84.421875 87.773438 83.230469 84.359375 83.230469 C 80.804688 83.230469 77.929688 85.191406 76.503906 86.394531 C 74.628906 84.574219 69.820312 81.042969 61.554688 82.097656 C 49.175781 83.667969 47.246094 94.285156 46.949219 97.34375 C 45.015625 98.261719 40.097656 101.21875 40.097656 107.484375 C 40.097656 112.175781 42.550781 115.648438 44.628906 117.03125 L 44.628906 221.640625 C 44.628906 221.816406 44.664062 221.988281 44.734375 222.144531 C 45.351562 223.503906 50.90625 235.441406 57.179688 235.441406 L 134.1875 235.441406 C 140.464844 235.441406 146.019531 223.503906 146.628906 222.144531 C 146.703125 221.988281 146.738281 221.816406 146.738281 221.640625 L 146.738281 203.433594 L 167.558594 203.433594 C 170.425781 203.433594 173.136719 202.175781 174.992188 199.988281 C 176.492188 198.226562 177.316406 195.980469 177.316406 193.664062 L 177.316406 138.722656 C 177.316406 136.410156 176.492188 134.164062 174.996094 132.398438 Z M 146.738281 141.699219 L 164.214844 141.699219 L 166.941406 144.792969 L 166.941406 187.59375 L 164.214844 190.691406 L 146.738281 190.691406 Z M 42.550781 107.484375 C 42.550781 101.59375 48.292969 99.414062 48.535156 99.328125 C 49.015625 99.152344 49.339844 98.695312 49.34375 98.179688 C 49.351562 97.6875 49.601562 86.085938 61.863281 84.527344 C 71.144531 83.34375 75.28125 88.636719 75.449219 88.859375 C 75.667969 89.152344 76.003906 89.332031 76.367188 89.351562 C 76.730469 89.367188 77.082031 89.226562 77.332031 88.960938 C 77.359375 88.925781 80.410156 85.679688 84.359375 85.679688 C 88.269531 85.679688 90.210938 87.53125 90.285156 87.605469 C 90.726562 88.050781 91.433594 88.089844 91.921875 87.699219 C 91.976562 87.65625 97.394531 83.394531 105.875 83.394531 C 115.1875 83.394531 119.410156 89.453125 119.582031 89.710938 C 119.796875 90.03125 120.152344 90.230469 120.539062 90.25 C 120.921875 90.261719 121.296875 90.101562 121.546875 89.804688 C 121.667969 89.65625 124.621094 86.179688 129.5 86.8125 C 134.347656 87.445312 136.390625 91.65625 136.472656 91.828125 C 136.710938 92.339844 137.261719 92.625 137.808594 92.519531 C 137.890625 92.503906 146.058594 91.066406 150.132812 97.675781 C 152.996094 102.320312 150.28125 106.457031 150.167969 106.625 C 149.835938 107.109375 149.894531 107.761719 150.300781 108.179688 C 150.410156 108.292969 152.964844 110.960938 151.285156 113.503906 C 149.574219 116.089844 147.308594 115.398438 147.070312 115.316406 C 146.960938 115.277344 146.851562 115.273438 146.738281 115.265625 L 146.738281 111.894531 C 146.738281 111.21875 146.191406 110.667969 145.511719 110.667969 L 129.660156 110.667969 C 129.605469 110.667969 129.558594 110.691406 129.503906 110.699219 C 129.421875 110.710938 129.34375 110.71875 129.265625 110.746094 C 129.191406 110.773438 129.125 110.808594 129.058594 110.847656 C 128.992188 110.886719 128.925781 110.925781 128.871094 110.976562 C 128.808594 111.03125 128.757812 111.089844 128.707031 111.15625 C 128.660156 111.214844 128.617188 111.269531 128.582031 111.339844 C 128.542969 111.414062 128.519531 111.492188 128.5 111.574219 C 128.484375 111.625 128.457031 111.667969 128.449219 111.722656 C 128.4375 111.792969 127.320312 119.011719 121.34375 121.023438 C 115.4375 123.007812 110.269531 116.890625 110.21875 116.828125 C 110.003906 116.570312 109.6875 116.410156 109.351562 116.390625 C 109.019531 116.375 108.683594 116.484375 108.4375 116.71875 C 108.417969 116.734375 106.417969 118.484375 102.777344 117.566406 C 98.921875 116.59375 96.84375 111.496094 96.820312 111.441406 C 96.636719 110.976562 96.183594 110.671875 95.683594 110.671875 L 69.636719 110.671875 C 69.617188 110.671875 69.597656 110.679688 69.578125 110.679688 C 69.511719 110.683594 69.453125 110.707031 69.390625 110.71875 C 69.296875 110.742188 69.203125 110.753906 69.121094 110.792969 C 69.066406 110.820312 69.027344 110.855469 68.980469 110.886719 C 68.894531 110.941406 68.8125 110.992188 68.746094 111.066406 C 68.703125 111.113281 68.675781 111.167969 68.640625 111.21875 C 68.585938 111.300781 68.53125 111.375 68.496094 111.464844 C 68.492188 111.480469 68.480469 111.488281 68.476562 111.503906 C 68.4375 111.609375 67.554688 114.097656 65.105469 114.097656 C 62.566406 114.097656 61.699219 112.542969 61.671875 112.492188 C 61.46875 112.082031 61.050781 111.828125 60.59375 111.820312 C 60.121094 111.839844 59.703125 112.074219 59.488281 112.476562 C 59.453125 112.542969 58.585938 114.097656 56.046875 114.097656 C 53.597656 114.097656 52.714844 111.609375 52.679688 111.511719 C 52.511719 111.007812 52.042969 110.667969 51.515625 110.667969 L 45.851562 110.667969 C 45.175781 110.667969 44.628906 111.21875 44.628906 111.894531 L 44.628906 113.695312 C 43.554688 112.339844 42.550781 110.195312 42.550781 107.484375 Z M 128.433594 222.703125 L 119.558594 222.703125 L 119.558594 132.46875 C 119.558594 132.402344 119.609375 125.695312 123.996094 125.695312 C 128.363281 125.695312 128.433594 132.195312 128.433594 132.46875 Z M 123.996094 123.242188 C 118.546875 123.242188 117.109375 129.277344 117.109375 132.46875 L 117.109375 222.699219 L 101.4375 222.699219 L 101.4375 132.46875 C 101.4375 129.277344 100 123.242188 94.550781 123.242188 C 89.101562 123.242188 87.664062 129.277344 87.664062 132.46875 L 87.664062 222.699219 L 74.257812 222.699219 L 74.257812 132.46875 C 74.257812 129.277344 72.820312 123.242188 67.371094 123.242188 C 61.921875 123.242188 60.484375 129.277344 60.484375 132.46875 L 60.484375 222.316406 C 57.554688 220.871094 54.132812 215.542969 52.347656 211.859375 L 52.347656 115.191406 C 53.222656 115.941406 54.421875 116.546875 56.046875 116.546875 C 58.261719 116.546875 59.703125 115.722656 60.574219 114.941406 C 61.445312 115.722656 62.890625 116.546875 65.105469 116.546875 C 68.199219 116.546875 69.777344 114.363281 70.425781 113.117188 L 94.894531 113.117188 C 95.738281 114.847656 98.121094 118.917969 102.179688 119.941406 C 105.488281 120.777344 107.84375 119.917969 109.089844 119.214844 C 110.621094 120.753906 114.289062 123.882812 118.875 123.882812 C 119.914062 123.882812 121 123.722656 122.121094 123.34375 C 128.082031 121.339844 130.074219 115.523438 130.65625 113.117188 L 138.625 113.117188 L 138.625 212.144531 C 136.972656 215.722656 133.746094 220.898438 130.882812 222.320312 L 130.882812 132.46875 C 130.882812 129.277344 129.445312 123.242188 123.996094 123.242188 Z M 90.113281 222.703125 L 90.113281 132.46875 C 90.113281 132.402344 90.167969 125.695312 94.550781 125.695312 C 98.917969 125.695312 98.988281 132.195312 98.988281 132.46875 L 98.988281 222.699219 L 90.113281 222.699219 Z M 62.933594 222.703125 L 62.933594 132.46875 C 62.933594 132.402344 62.984375 125.695312 67.371094 125.695312 C 71.734375 125.695312 71.808594 132.195312 71.808594 132.46875 L 71.808594 222.699219 L 62.933594 222.699219 Z M 144.289062 221.375 C 142.175781 225.964844 137.679688 232.988281 134.1875 232.988281 L 57.179688 232.988281 C 53.695312 232.988281 49.191406 225.964844 47.078125 221.375 L 47.078125 113.117188 L 49.898438 113.117188 L 49.898438 212.144531 C 49.898438 212.152344 49.90625 212.160156 49.90625 212.167969 C 49.90625 212.25 49.933594 212.332031 49.953125 212.410156 C 49.972656 212.488281 49.980469 212.570312 50.011719 212.644531 C 50.015625 212.652344 50.015625 212.660156 50.015625 212.667969 C 50.609375 213.914062 55.828125 224.578125 61.464844 225.101562 C 61.546875 225.121094 61.621094 225.152344 61.710938 225.152344 C 61.734375 225.152344 61.753906 225.140625 61.777344 225.140625 C 61.8125 225.140625 61.851562 225.152344 61.890625 225.152344 L 129.480469 225.152344 C 129.519531 225.152344 129.554688 225.140625 129.59375 225.140625 C 129.617188 225.140625 129.636719 225.152344 129.660156 225.152344 C 129.742188 225.152344 129.816406 225.121094 129.894531 225.105469 C 135.53125 224.601562 140.417969 214.136719 140.96875 212.910156 C 141.039062 212.753906 141.078125 212.582031 141.078125 212.40625 L 141.078125 113.117188 L 144.289062 113.117188 Z M 174.867188 193.667969 C 174.867188 195.398438 174.25 197.082031 173.128906 198.402344 C 171.738281 200.042969 169.707031 200.980469 167.558594 200.980469 L 146.738281 200.980469 L 146.738281 193.144531 L 164.765625 193.144531 C 165.117188 193.144531 165.453125 192.992188 165.6875 192.726562 L 169.082031 188.871094 C 169.28125 188.644531 169.390625 188.359375 169.390625 188.058594 L 169.390625 144.332031 C 169.390625 144.03125 169.28125 143.742188 169.082031 143.519531 L 165.6875 139.664062 C 165.453125 139.398438 165.117188 139.246094 164.765625 139.246094 L 146.738281 139.246094 L 146.738281 131.410156 L 167.558594 131.410156 C 169.707031 131.410156 171.738281 132.347656 173.128906 133.988281 C 174.25 135.308594 174.867188 136.992188 174.867188 138.722656 Z M 174.867188 193.667969 " fill-opacity="1" fill-rule="nonzero"/></g><path fill="#000000" d="M 120.597656 111.976562 C 124.398438 111.976562 127.488281 108.859375 127.488281 105.03125 C 127.488281 101.203125 124.398438 98.089844 120.597656 98.089844 C 116.800781 98.089844 113.710938 101.203125 113.710938 105.03125 C 113.710938 108.859375 116.800781 111.976562 120.597656 111.976562 Z M 120.597656 100.542969 C 123.046875 100.542969 125.035156 102.558594 125.035156 105.035156 C 125.035156 107.507812 123.046875 109.523438 120.597656 109.523438 C 118.152344 109.523438 116.160156 107.507812 116.160156 105.035156 C 116.160156 102.558594 118.152344 100.542969 120.597656 100.542969 Z M 120.597656 100.542969 " fill-opacity="1" fill-rule="nonzero"/><path fill="#000000" d="M 136.453125 104.054688 C 139.003906 104.054688 141.078125 101.96875 141.078125 99.402344 C 141.078125 96.832031 139.003906 94.746094 136.453125 94.746094 C 133.90625 94.746094 131.832031 96.832031 131.832031 99.402344 C 131.832031 101.96875 133.90625 104.054688 136.453125 104.054688 Z M 136.453125 97.195312 C 137.652344 97.195312 138.625 98.183594 138.625 99.402344 C 138.625 100.617188 137.652344 101.605469 136.453125 101.605469 C 135.257812 101.605469 134.28125 100.617188 134.28125 99.402344 C 134.28125 98.183594 135.257812 97.195312 136.453125 97.195312 Z M 136.453125 97.195312 " fill-opacity="1" fill-rule="nonzero"/><path fill="#000000" d="M 63.488281 107.761719 C 66.394531 107.761719 68.757812 105.378906 68.757812 102.453125 C 68.757812 99.523438 66.394531 97.140625 63.488281 97.140625 C 60.582031 97.140625 58.21875 99.523438 58.21875 102.453125 C 58.21875 105.378906 60.582031 107.761719 63.488281 107.761719 Z M 63.488281 99.59375 C 65.042969 99.59375 66.308594 100.875 66.308594 102.453125 C 66.308594 104.027344 65.042969 105.308594 63.488281 105.308594 C 61.933594 105.308594 60.667969 104.027344 60.667969 102.453125 C 60.667969 100.875 61.933594 99.59375 63.488281 99.59375 Z M 63.488281 99.59375 " fill-opacity="1" fill-rule="nonzero"/><path fill="#000000" d="M 68.34375 96.328125 C 70.355469 96.328125 71.996094 94.679688 71.996094 92.652344 C 71.996094 90.625 70.355469 88.976562 68.34375 88.976562 C 66.328125 88.976562 64.691406 90.625 64.691406 92.652344 C 64.691406 94.679688 66.328125 96.328125 68.34375 96.328125 Z M 68.34375 91.429688 C 69.003906 91.429688 69.542969 91.976562 69.542969 92.652344 C 69.542969 93.328125 69.003906 93.875 68.34375 93.875 C 67.679688 93.875 67.140625 93.328125 67.140625 92.652344 C 67.140625 91.976562 67.679688 91.429688 68.34375 91.429688 Z M 68.34375 91.429688 " fill-opacity="1" fill-rule="nonzero"/><path fill="#000000" d="M 91.316406 105.117188 C 93.328125 105.117188 94.96875 103.464844 94.96875 101.441406 C 94.96875 99.414062 93.328125 97.761719 91.316406 97.761719 C 89.300781 97.761719 87.664062 99.414062 87.664062 101.441406 C 87.664062 103.46875 89.300781 105.117188 91.316406 105.117188 Z M 91.316406 100.21875 C 91.976562 100.21875 92.515625 100.765625 92.515625 101.441406 C 92.515625 102.117188 91.976562 102.664062 91.316406 102.664062 C 90.652344 102.664062 90.113281 102.117188 90.113281 101.441406 C 90.113281 100.765625 90.652344 100.21875 91.316406 100.21875 Z M 91.316406 100.21875 " fill-opacity="1" fill-rule="nonzero"/><g clip-path="url(#id3)"><path fill="#000000" d="M 368.679688 254.03125 C 368.175781 235.292969 366.152344 208.324219 366.480469 189.347656 C 366.804688 170.648438 365.640625 160.640625 367.011719 143.109375 C 368.804688 120.207031 368.316406 104.550781 366.847656 83.246094 C 365.878906 69.132812 354.503906 62.039062 331.996094 63.675781 C 324.269531 64.238281 298.921875 66.445312 289.015625 67.480469 C 279.179688 68.4375 272.613281 68.671875 255.519531 66.976562 C 238.457031 65.144531 211.460938 61.945312 187.625 60.398438 C 163.878906 58.816406 136.316406 60.519531 113.921875 61.167969 C 91.578125 61.785156 27.242188 57.148438 12.933594 91.992188 C 7.394531 105.492188 10.324219 121.15625 10.542969 138.804688 C 10.738281 156.539062 6.914062 185.425781 6.433594 206.136719 C 6.0625 226.636719 4.828125 243.863281 8.054688 261.226562 C 11.410156 278.546875 14.527344 292.40625 23.332031 302.285156 C 33.3125 313.488281 55.425781 319.015625 67.410156 319.050781 C 82.433594 319.097656 102.160156 310.40625 126.671875 310.164062 C 138.628906 310.050781 142.164062 312.363281 158.867188 313.378906 C 175.78125 314.34375 209.019531 315.855469 226.640625 315.984375 C 244.207031 315.988281 251.339844 312.726562 263.597656 313.582031 C 275.882812 314.417969 286.285156 318.574219 299.726562 319.125 C 313.222656 319.554688 320.5 316.914062 331.425781 313.496094 C 342.457031 309.960938 354.796875 305.089844 360.007812 294.796875 C 365.085938 284.773438 369.148438 272.609375 368.679688 254.03125 Z M 355.613281 295.667969 C 350.941406 301.082031 342.730469 305.386719 329.710938 309.800781 C 319.921875 313.121094 310.109375 316.695312 286.957031 313.714844 C 280.597656 312.898438 270.960938 310.441406 263.992188 310.238281 C 256.960938 310.050781 244.636719 311.894531 237.363281 312.410156 C 230.316406 312.851562 206.246094 312.898438 196.550781 312.5 C 186.875 312.136719 176.910156 312.542969 166.617188 311.863281 C 156.421875 311.019531 145.699219 307.574219 136.101562 307.804688 C 126.617188 308.085938 110.664062 308.59375 104.132812 309.949219 C 93.917969 312.070312 74.371094 317.871094 63.925781 317.015625 C 53.710938 316.183594 37.863281 309.328125 30.980469 302.558594 C 24.191406 295.882812 20.660156 280.019531 17.5625 268.574219 C 14.585938 257.050781 13.515625 245.566406 12.863281 234.242188 C 12.316406 222.886719 13.378906 212.671875 14.15625 200.921875 C 15.046875 189.007812 17.226562 176.453125 17.640625 163.6875 C 18.082031 150.769531 16.851562 136.621094 16.582031 124.777344 C 16.328125 113.523438 16.265625 101.542969 17.996094 97.394531 C 25.238281 80.019531 40.691406 72.59375 58.148438 69.449219 C 73.410156 66.695312 80.964844 66.9375 98.882812 66.164062 C 116.9375 65.375 144.832031 63.238281 166.695312 63.832031 C 188.65625 64.394531 211.53125 67.546875 228.769531 69.519531 C 245.898438 71.371094 257.636719 71.742188 268.785156 71.757812 C 298.773438 71.796875 320.207031 67.15625 335.554688 67.492188 C 346.289062 67.734375 357.21875 70.875 360.050781 77.59375 C 364.347656 87.785156 364.027344 110.898438 363.269531 124.847656 C 362.648438 138.710938 361.769531 152.945312 361.964844 166.59375 C 362.273438 180.179688 362.464844 191.414062 363.917969 205.441406 C 365.417969 219.386719 364.605469 239.902344 365.871094 251.753906 C 367.175781 263.925781 365.542969 284.148438 355.613281 295.667969 Z M 355.613281 295.667969 " fill-opacity="1" fill-rule="nonzero"/></g><g clip-path="url(#id4)"><path stroke-linecap="butt" transform="matrix(2.042506, 0, 0, 2.040271, -293.98729, -274.322881)" fill="none" stroke-linejoin="miter" d="M 324.438147 258.962768 C 324.191438 249.778555 323.200774 236.560333 323.361422 227.25933 C 323.520157 218.094262 322.950239 213.189123 323.621519 204.596512 C 324.499347 193.371363 324.260287 185.697748 323.541195 175.255659 C 323.0669 168.338302 317.497762 164.861435 306.478059 165.663641 C 302.695176 165.93934 290.285102 167.021075 285.435056 167.528437 C 280.619434 167.997508 277.404557 168.112382 269.03555 167.281457 C 260.681843 166.383521 247.464703 164.815485 235.794757 164.057313 C 224.168799 163.281911 210.674349 164.116665 199.710108 164.434484 C 188.77073 164.736987 157.272205 162.464387 150.266795 179.542391 C 147.5549 186.159161 148.989259 193.836604 149.096358 202.486651 C 149.191982 211.178819 147.319665 225.337097 147.08443 235.488171 C 146.902745 245.535858 146.298402 253.979131 147.878109 262.489414 C 149.520928 270.978637 151.047086 277.771547 155.357813 282.613506 C 160.244197 288.104506 171.070739 290.813628 176.938224 290.83086 C 184.293617 290.853835 193.951635 286.593906 205.952439 286.475203 C 211.806536 286.41968 213.53733 287.553108 221.715089 288.050898 C 229.996122 288.523797 246.269403 289.264738 254.896595 289.327919 C 263.497012 289.329833 266.989198 287.731164 272.990556 288.150455 C 279.005302 288.560174 284.098233 290.597282 290.679072 290.867237 C 297.286686 291.07784 300.849634 289.783587 306.198837 288.108335 C 311.599677 286.375645 317.641198 283.988171 320.192444 278.943267 C 322.678667 274.030469 324.667645 268.068484 324.438147 258.962768 Z M 318.040906 279.370217 C 315.753581 282.023817 311.733551 284.133678 305.359259 286.297147 C 300.566588 287.924536 295.762441 289.676371 284.427179 288.215551 C 281.313664 287.815405 276.595579 286.611138 273.183717 286.51158 C 269.741255 286.41968 263.707385 287.323359 260.146349 287.576083 C 256.696237 287.79243 244.911543 287.815405 240.164771 287.620118 C 235.427561 287.442063 230.548828 287.641179 225.509446 287.308043 C 220.517877 286.894495 215.268123 285.20584 210.569162 285.3188 C 205.925664 285.456649 198.115101 285.705544 194.917436 286.369901 C 189.916304 287.409515 180.346261 290.252658 175.232293 289.833366 C 170.231161 289.425562 162.472234 286.065484 159.102447 282.747526 C 155.778559 279.475519 154.049678 271.700432 152.533082 266.090729 C 151.075774 260.442734 150.551754 254.813885 150.23237 249.263534 C 149.964623 243.697866 150.484818 238.691254 150.865401 232.932214 C 151.301446 227.092762 152.368609 220.93932 152.571332 214.682491 C 152.787442 208.350993 152.185011 201.416404 152.05305 195.611415 C 151.928739 190.095526 151.898139 184.223526 152.745367 182.190248 C 156.291103 173.674221 163.856869 170.034615 172.403737 168.493382 C 179.875791 167.143607 183.574525 167.262311 192.347065 166.883225 C 201.186542 166.496481 214.843552 165.449209 225.547696 165.740224 C 236.299652 166.015923 247.499127 167.560985 255.938896 168.527845 C 264.325115 169.435353 270.072114 169.617237 275.530328 169.624896 C 290.212428 169.644042 300.706198 167.369527 308.220327 167.534181 C 313.475819 167.652884 318.826935 169.192202 320.213482 172.48527 C 322.317208 177.480395 322.160385 188.808932 321.789364 195.645877 C 321.48528 202.440702 321.054972 209.417411 321.150596 216.106934 C 321.301682 222.765824 321.395394 228.27214 322.106836 235.147377 C 322.841228 241.982407 322.443432 252.037752 323.063075 257.846571 C 323.701843 263.812385 322.902427 273.724137 318.040906 279.370217 Z M 318.040906 279.370217 " stroke="#000000" stroke-width="0.036" stroke-opacity="1" stroke-miterlimit="10"/></g><g fill="#000000" fill-opacity="1"><g transform="translate(30.140422, 299.652263)"><g><path d="M 15.910156 0.773438 C 18.457031 0.773438 19.230469 -0.617188 19.230469 -3.785156 L 18.996094 -29.34375 C 18.996094 -31.585938 19.230469 -41.007812 19.230469 -43.941406 C 19.230469 -45.71875 19.691406 -46.566406 21.699219 -46.875 C 23.167969 -47.105469 24.09375 -46.953125 26.71875 -47.492188 C 29.34375 -48.035156 30.273438 -50.351562 30.273438 -51.585938 C 30.273438 -52.820312 29.035156 -54.289062 27.105469 -54.289062 C 20.695312 -54.289062 12.203125 -54.367188 3.785156 -54.367188 C 2.316406 -54.367188 0.773438 -52.976562 0.773438 -51.046875 C 0.773438 -49.113281 0.308594 -47.339844 4.941406 -47.339844 C 9.574219 -47.339844 11.429688 -47.339844 11.429688 -43.089844 L 11.507812 -41.777344 C 11.894531 -34.90625 11.660156 -28.265625 11.660156 -22.164062 C 11.660156 -18.148438 11.582031 -13.4375 11.507812 -8.804688 C 11.429688 -6.796875 11.429688 -3.320312 11.429688 -3.320312 C 11.429688 0.15625 13.359375 0.773438 15.910156 0.773438 Z M 15.910156 0.773438 "/></g></g></g><g fill="#000000" fill-opacity="1"><g transform="translate(61.179746, 299.652263)"><g><path d="M 15.445312 0.773438 C 20.386719 0.773438 24.480469 -1.929688 26.488281 -6.488281 C 27.722656 -9.265625 28.496094 -16.449219 28.496094 -25.949219 C 28.496094 -32.589844 28.574219 -37.996094 28.574219 -41.007812 C 28.574219 -44.019531 28.882812 -47.800781 28.882812 -50.890625 C 28.882812 -52.898438 28.496094 -54.597656 24.402344 -54.597656 C 20.617188 -54.597656 20.464844 -52.4375 20.464844 -49.964844 C 20.464844 -47.105469 20.773438 -43.710938 20.773438 -41.007812 C 20.773438 -38.304688 21.003906 -26.257812 21.003906 -22.164062 C 21.003906 -10.890625 19.460938 -6.949219 15.523438 -6.949219 C 11.738281 -6.949219 10.269531 -10.8125 10.269531 -22.085938 L 10.425781 -41.007812 C 10.425781 -44.019531 10.734375 -47.800781 10.734375 -50.890625 C 10.734375 -52.898438 10.347656 -54.597656 6.253906 -54.597656 C 2.472656 -54.597656 2.316406 -52.4375 2.316406 -49.964844 C 2.316406 -47.105469 2.625 -43.710938 2.625 -41.007812 C 2.703125 -34.132812 2.78125 -28.265625 2.78125 -22.164062 C 2.78125 -20.851562 2.703125 -19.539062 2.703125 -18.378906 C 2.703125 -12.433594 3.089844 -8.261719 3.628906 -6.71875 C 5.484375 -2.007812 9.886719 0.773438 15.445312 0.773438 Z M 15.445312 0.773438 "/></g></g></g><g fill="#000000" fill-opacity="1"><g transform="translate(92.373498, 299.652263)"><g><path d="M 25.253906 0.773438 C 27.492188 0.773438 28.726562 -0.308594 28.726562 -1.777344 C 28.726562 -2.238281 28.652344 -2.703125 28.417969 -3.167969 C 27.027344 -6.179688 22.472656 -15.675781 19.074219 -23.246094 C 18.457031 -24.710938 18.070312 -26.023438 18.070312 -27.335938 C 18.070312 -28.726562 18.457031 -30.039062 19.152344 -31.585938 C 22.472656 -38.921875 26.644531 -48.109375 28.03125 -50.582031 C 28.339844 -51.121094 28.496094 -51.664062 28.496094 -52.203125 C 28.496094 -53.515625 27.335938 -54.519531 25.253906 -54.519531 C 22.394531 -54.519531 21.238281 -54.132812 19.769531 -51.664062 C 18.921875 -50.195312 16.292969 -44.480469 15.832031 -43.476562 C 14.671875 -40.851562 13.4375 -38.457031 12.203125 -36.140625 C 11.894531 -35.523438 11.507812 -35.292969 11.199219 -35.292969 C 10.734375 -35.292969 10.347656 -35.753906 10.347656 -36.605469 L 10.347656 -41.007812 C 10.425781 -44.019531 10.734375 -47.800781 10.734375 -50.890625 C 10.734375 -52.898438 10.347656 -54.597656 6.253906 -54.597656 C 2.472656 -54.597656 2.316406 -52.4375 2.316406 -49.964844 C 2.316406 -47.105469 2.625 -43.710938 2.625 -41.007812 C 2.703125 -34.132812 2.78125 -28.265625 2.78125 -22.164062 C 2.78125 -18.148438 2.703125 -13.976562 2.625 -9.34375 C 2.546875 -7.335938 2.546875 -2.855469 2.546875 -2.855469 C 2.546875 -0.230469 3.476562 0.695312 6.488281 0.695312 C 10.269531 0.695312 10.503906 -0.230469 10.503906 -2.855469 C 10.503906 -2.855469 10.503906 -7.335938 10.425781 -9.34375 C 10.347656 -11.96875 10.347656 -14.441406 10.269531 -16.835938 L 10.269531 -17.375 C 10.269531 -18.226562 10.65625 -18.6875 11.121094 -18.6875 C 11.429688 -18.6875 11.816406 -18.457031 12.125 -17.839844 C 13.359375 -15.445312 14.671875 -12.972656 15.832031 -10.269531 C 16.292969 -9.265625 18.921875 -3.550781 19.769531 -2.085938 C 21.238281 0.386719 22.394531 0.773438 25.253906 0.773438 Z M 25.253906 0.773438 "/></g></g></g><g fill="#000000" fill-opacity="1"><g transform="translate(121.868579, 299.652263)"><g><path d="M 25.253906 0.773438 C 27.492188 0.773438 28.726562 -0.308594 28.726562 -1.777344 C 28.726562 -2.238281 28.652344 -2.703125 28.417969 -3.167969 C 27.027344 -6.179688 22.472656 -15.675781 19.074219 -23.246094 C 18.457031 -24.710938 18.070312 -26.023438 18.070312 -27.335938 C 18.070312 -28.726562 18.457031 -30.039062 19.152344 -31.585938 C 22.472656 -38.921875 26.644531 -48.109375 28.03125 -50.582031 C 28.339844 -51.121094 28.496094 -51.664062 28.496094 -52.203125 C 28.496094 -53.515625 27.335938 -54.519531 25.253906 -54.519531 C 22.394531 -54.519531 21.238281 -54.132812 19.769531 -51.664062 C 18.921875 -50.195312 16.292969 -44.480469 15.832031 -43.476562 C 14.671875 -40.851562 13.4375 -38.457031 12.203125 -36.140625 C 11.894531 -35.523438 11.507812 -35.292969 11.199219 -35.292969 C 10.734375 -35.292969 10.347656 -35.753906 10.347656 -36.605469 L 10.347656 -41.007812 C 10.425781 -44.019531 10.734375 -47.800781 10.734375 -50.890625 C 10.734375 -52.898438 10.347656 -54.597656 6.253906 -54.597656 C 2.472656 -54.597656 2.316406 -52.4375 2.316406 -49.964844 C 2.316406 -47.105469 2.625 -43.710938 2.625 -41.007812 C 2.703125 -34.132812 2.78125 -28.265625 2.78125 -22.164062 C 2.78125 -18.148438 2.703125 -13.976562 2.625 -9.34375 C 2.546875 -7.335938 2.546875 -2.855469 2.546875 -2.855469 C 2.546875 -0.230469 3.476562 0.695312 6.488281 0.695312 C 10.269531 0.695312 10.503906 -0.230469 10.503906 -2.855469 C 10.503906 -2.855469 10.503906 -7.335938 10.425781 -9.34375 C 10.347656 -11.96875 10.347656 -14.441406 10.269531 -16.835938 L 10.269531 -17.375 C 10.269531 -18.226562 10.65625 -18.6875 11.121094 -18.6875 C 11.429688 -18.6875 11.816406 -18.457031 12.125 -17.839844 C 13.359375 -15.445312 14.671875 -12.972656 15.832031 -10.269531 C 16.292969 -9.265625 18.921875 -3.550781 19.769531 -2.085938 C 21.238281 0.386719 22.394531 0.773438 25.253906 0.773438 Z M 25.253906 0.773438 "/></g></g></g><g fill="#000000" fill-opacity="1"><g transform="translate(151.36366, 299.652263)"><g><path d="M 4.246094 0.773438 C 7.105469 0.773438 8.261719 0.386719 8.957031 -2.085938 C 9.421875 -3.785156 9.652344 -4.941406 10.039062 -6.023438 C 10.578125 -7.566406 11.660156 -8.882812 14.519531 -8.882812 C 17.375 -8.882812 18.457031 -7.566406 18.996094 -6.023438 C 19.382812 -4.941406 19.613281 -3.785156 20.078125 -2.085938 C 20.773438 0.386719 21.933594 0.773438 24.789062 0.773438 C 26.953125 0.773438 27.800781 -0.308594 27.800781 -1.699219 C 27.800781 -2.164062 27.722656 -2.625 27.570312 -3.167969 C 26.796875 -5.714844 21.082031 -35.601562 19.769531 -43.476562 C 19.460938 -45.410156 18.84375 -49.425781 18.84375 -51.507812 C 18.84375 -53.59375 17.296875 -54.90625 14.519531 -54.90625 C 11.738281 -54.90625 10.195312 -53.59375 10.195312 -51.507812 C 10.195312 -49.425781 9.574219 -45.410156 9.265625 -43.476562 C 7.953125 -35.601562 2.238281 -5.714844 1.46875 -3.167969 C 1.3125 -2.625 1.234375 -2.164062 1.234375 -1.699219 C 1.234375 -0.308594 2.085938 0.773438 4.246094 0.773438 Z M 14.519531 -15.289062 C 13.050781 -15.289062 11.582031 -15.445312 11.816406 -17.453125 C 12.125 -19.847656 13.824219 -35.367188 14.519531 -35.367188 C 15.214844 -35.367188 16.914062 -19.847656 17.222656 -17.453125 C 17.453125 -15.445312 16.0625 -15.289062 14.519531 -15.289062 Z M 14.519531 -15.289062 "/></g></g></g><g fill="#000000" fill-opacity="1"><g transform="translate(179.537824, 142.782816)"><g><path d="M 15.597656 0.539062 C 23.320312 0.539062 28.109375 -5.792969 28.109375 -16.835938 C 28.109375 -17.917969 27.335938 -19.691406 24.558594 -19.691406 C 22.625 -19.691406 20.773438 -19.613281 20.773438 -16.601562 C 20.773438 -10.578125 18.6875 -6.488281 15.597656 -6.488281 C 12.125 -6.488281 9.808594 -15.289062 9.808594 -28.339844 C 9.808594 -40.078125 12.585938 -48.035156 16.757812 -48.035156 C 19.382812 -48.035156 21.160156 -42.859375 21.160156 -35.214844 C 21.46875 -33.515625 22.316406 -32.203125 24.945312 -32.203125 C 27.570312 -32.203125 28.882812 -33.4375 28.882812 -35.753906 C 28.882812 -47.339844 23.941406 -55.0625 16.601562 -55.0625 C 8.03125 -55.0625 2.316406 -44.09375 2.316406 -27.648438 C 2.316406 -9.960938 7.257812 0.539062 15.597656 0.539062 Z M 15.597656 0.539062 "/></g></g></g><g fill="#000000" fill-opacity="1"><g transform="translate(208.800865, 142.782816)"><g><path d="M 23.941406 0.847656 C 25.40625 0.847656 27.648438 0.308594 27.648438 -1.542969 C 27.648438 -3.320312 26.410156 -3.859375 22.859375 -9.574219 C 21.003906 -12.511719 19.539062 -16.371094 18.765625 -19.847656 C 19.769531 -20.386719 20.851562 -21.238281 22.085938 -22.316406 C 23.707031 -23.863281 25.484375 -27.570312 25.484375 -33.4375 C 25.484375 -39.539062 22.550781 -55.371094 11.738281 -55.371094 C 5.867188 -55.371094 2.316406 -54.058594 2.316406 -49.191406 C 2.316406 -46.488281 2.625 -43.476562 2.625 -41.007812 C 2.703125 -34.132812 2.78125 -28.265625 2.78125 -22.164062 C 2.78125 -18.148438 2.703125 -13.976562 2.625 -9.34375 C 2.546875 -7.335938 2.546875 -3.859375 2.546875 -3.859375 C 2.546875 -1.234375 3.476562 0.695312 6.488281 0.695312 C 10.269531 0.695312 10.503906 -1.234375 10.503906 -3.859375 C 10.503906 -3.859375 10.503906 -7.335938 10.425781 -9.34375 C 10.347656 -10.734375 10.347656 -11.894531 10.347656 -12.820312 C 10.347656 -14.828125 10.425781 -16.0625 10.65625 -16.835938 C 10.734375 -17.144531 10.964844 -17.296875 11.199219 -17.296875 C 11.507812 -17.296875 11.894531 -16.988281 11.96875 -16.527344 C 12.898438 -12.585938 15.675781 -7.566406 17.605469 -4.402344 C 19.304688 -1.542969 20.695312 0 22.703125 0.695312 C 22.9375 0.773438 23.398438 0.847656 23.941406 0.847656 Z M 13.589844 -27.105469 C 11.199219 -27.105469 10.269531 -28.574219 10.269531 -30.660156 L 10.269531 -42.859375 C 10.195312 -46.644531 10.269531 -48.421875 12.125 -48.421875 C 14.980469 -48.421875 17.839844 -42.9375 17.839844 -35.988281 C 17.839844 -30.660156 16.140625 -27.105469 13.589844 -27.105469 Z M 13.589844 -27.105469 "/></g></g></g><g fill="#000000" fill-opacity="1"><g transform="translate(234.666563, 142.782816)"><g><path d="M 4.246094 0.773438 C 7.105469 0.773438 8.261719 0.386719 8.957031 -2.085938 C 9.421875 -3.785156 9.652344 -4.941406 10.039062 -6.023438 C 10.578125 -7.566406 11.660156 -8.882812 14.519531 -8.882812 C 17.375 -8.882812 18.457031 -7.566406 18.996094 -6.023438 C 19.382812 -4.941406 19.613281 -3.785156 20.078125 -2.085938 C 20.773438 0.386719 21.933594 0.773438 24.789062 0.773438 C 26.953125 0.773438 27.800781 -0.308594 27.800781 -1.699219 C 27.800781 -2.164062 27.722656 -2.625 27.570312 -3.167969 C 26.796875 -5.714844 21.082031 -35.601562 19.769531 -43.476562 C 19.460938 -45.410156 18.84375 -49.425781 18.84375 -51.507812 C 18.84375 -53.59375 17.296875 -54.90625 14.519531 -54.90625 C 11.738281 -54.90625 10.195312 -53.59375 10.195312 -51.507812 C 10.195312 -49.425781 9.574219 -45.410156 9.265625 -43.476562 C 7.953125 -35.601562 2.238281 -5.714844 1.46875 -3.167969 C 1.3125 -2.625 1.234375 -2.164062 1.234375 -1.699219 C 1.234375 -0.308594 2.085938 0.773438 4.246094 0.773438 Z M 14.519531 -15.289062 C 13.050781 -15.289062 11.582031 -15.445312 11.816406 -17.453125 C 12.125 -19.847656 13.824219 -35.367188 14.519531 -35.367188 C 15.214844 -35.367188 16.914062 -19.847656 17.222656 -17.453125 C 17.453125 -15.445312 16.0625 -15.289062 14.519531 -15.289062 Z M 14.519531 -15.289062 "/></g></g></g><g fill="#000000" fill-opacity="1"><g transform="translate(262.848633, 142.782816)"><g><path d="M 7.027344 0.773438 C 9.574219 0.773438 10.347656 -0.617188 10.347656 -3.785156 L 10.117188 -17.683594 C 10.117188 -18.921875 11.042969 -19.925781 12.125 -19.925781 C 13.746094 -19.925781 20.386719 -19.769531 20.386719 -22.703125 C 20.386719 -26.023438 15.832031 -26.644531 12.820312 -26.644531 C 11.351562 -26.644531 10.503906 -27.105469 10.503906 -29.34375 C 10.503906 -31.585938 10.347656 -41.007812 10.347656 -43.941406 C 10.347656 -45.71875 10.8125 -46.566406 12.820312 -46.875 C 14.285156 -47.105469 17.53125 -46.953125 20.15625 -47.492188 C 22.78125 -48.035156 23.707031 -50.351562 23.707031 -51.585938 C 23.707031 -52.820312 22.472656 -54.289062 20.542969 -54.289062 C 18.609375 -54.289062 7.722656 -54.675781 5.25 -54.597656 C 2.78125 -54.519531 2.316406 -51.894531 2.316406 -49.191406 C 2.316406 -46.488281 2.625 -43.476562 2.625 -41.007812 C 2.703125 -34.132812 2.78125 -28.265625 2.78125 -22.164062 C 2.78125 -18.148438 2.703125 -13.4375 2.625 -8.804688 C 2.546875 -6.796875 2.546875 -3.320312 2.546875 -3.320312 C 2.546875 0.15625 4.480469 0.773438 7.027344 0.773438 Z M 7.027344 0.773438 "/></g></g></g><g fill="#000000" fill-opacity="1"><g transform="translate(287.015659, 142.782816)"><g><path d="M 15.910156 0.773438 C 18.457031 0.773438 19.230469 -0.617188 19.230469 -3.785156 L 18.996094 -29.34375 C 18.996094 -31.585938 19.230469 -41.007812 19.230469 -43.941406 C 19.230469 -45.71875 19.691406 -46.566406 21.699219 -46.875 C 23.167969 -47.105469 24.09375 -46.953125 26.71875 -47.492188 C 29.34375 -48.035156 30.273438 -50.351562 30.273438 -51.585938 C 30.273438 -52.820312 29.035156 -54.289062 27.105469 -54.289062 C 20.695312 -54.289062 12.203125 -54.367188 3.785156 -54.367188 C 2.316406 -54.367188 0.773438 -52.976562 0.773438 -51.046875 C 0.773438 -49.113281 0.308594 -47.339844 4.941406 -47.339844 C 9.574219 -47.339844 11.429688 -47.339844 11.429688 -43.089844 L 11.507812 -41.777344 C 11.894531 -34.90625 11.660156 -28.265625 11.660156 -22.164062 C 11.660156 -18.148438 11.582031 -13.4375 11.507812 -8.804688 C 11.429688 -6.796875 11.429688 -3.320312 11.429688 -3.320312 C 11.429688 0.15625 13.359375 0.773438 15.910156 0.773438 Z M 15.910156 0.773438 "/></g></g></g><g fill="#000000" fill-opacity="1"><g transform="translate(316.124279, 142.782816)"><g><path d="M 17.453125 0.773438 C 21.238281 0.773438 21.46875 -1.160156 21.46875 -3.785156 C 21.46875 -3.785156 21.390625 -7.800781 21.390625 -9.265625 L 21.390625 -18.457031 C 21.390625 -20.308594 22.550781 -23.554688 23.320312 -25.253906 C 26.644531 -33.902344 29.886719 -42.628906 33.207031 -51.277344 C 33.4375 -51.664062 33.515625 -52.050781 33.515625 -52.4375 C 33.515625 -53.75 32.433594 -54.984375 30.8125 -54.984375 C 28.417969 -54.984375 27.105469 -54.828125 25.714844 -53.054688 L 19.074219 -33.285156 C 18.765625 -32.433594 18.148438 -31.972656 17.53125 -31.972656 C 16.914062 -31.972656 16.292969 -32.433594 15.984375 -33.285156 L 9.34375 -53.054688 C 7.953125 -54.828125 6.640625 -54.984375 4.246094 -54.984375 C 2.625 -54.984375 1.542969 -53.75 1.542969 -52.4375 C 1.542969 -52.050781 1.621094 -51.664062 1.851562 -51.277344 C 2.625 -49.347656 9.421875 -29.886719 10.8125 -25.949219 C 11.894531 -22.9375 13.359375 -20.234375 13.359375 -18.148438 C 13.359375 -16.0625 13.589844 -12.820312 13.589844 -9.265625 C 13.589844 -5.714844 13.515625 -3.785156 13.515625 -3.785156 C 13.515625 -1.160156 14.441406 0.773438 17.453125 0.773438 Z M 17.453125 0.773438 "/></g></g></g></svg>